<svg xmlns="http://www.w3.org/2000/svg" xmlns:xlink="http://www.w3.org/1999/xlink" viewBox="463 101.927 1437.5 935.073">
  <defs>
    <style>
      .cls-1 {
        fill: none;
      }

      .cls-2 {
        fill: url(#linear-gradient);
      }

      .cls-3 {
        fill: url(#radial-gradient);
      }

      .cls-4 {
        fill: url(#linear-gradient-2);
      }

      .cls-5 {
        fill: url(#linear-gradient-3);
      }

      .cls-6 {
        fill: url(#linear-gradient-4);
      }

      .cls-7 {
        fill: #a9656a;
      }

      .cls-8 {
        fill: url(#linear-gradient-5);
      }

      .cls-9 {
        fill: url(#linear-gradient-6);
      }

      .cls-10 {
        fill: url(#linear-gradient-7);
      }

      .cls-11 {
        fill: url(#linear-gradient-8);
      }

      .cls-12 {
        fill: url(#linear-gradient-9);
      }

      .cls-13 {
        fill: url(#linear-gradient-10);
      }

      .cls-14 {
        fill: url(#linear-gradient-11);
      }

      .cls-15 {
        fill: url(#linear-gradient-12);
      }

      .cls-16 {
        fill: url(#linear-gradient-13);
      }

      .cls-17 {
        fill: url(#linear-gradient-14);
      }

      .cls-18 {
        fill: url(#linear-gradient-15);
      }

      .cls-19 {
        fill: url(#linear-gradient-16);
      }

      .cls-20 {
        fill: url(#linear-gradient-17);
      }

      .cls-21 {
        fill: url(#linear-gradient-18);
      }

      .cls-22 {
        fill: url(#linear-gradient-19);
      }

      .cls-23 {
        clip-path: url(#clip-path);
      }

      .cls-24 {
        fill: url(#linear-gradient-20);
      }

      .cls-25 {
        fill: url(#linear-gradient-21);
      }

      .cls-26 {
        fill: url(#linear-gradient-22);
      }

      .cls-27 {
        fill: url(#linear-gradient-24);
      }

      .cls-28 {
        fill: url(#linear-gradient-25);
      }

      .cls-29 {
        fill: #27283a;
      }

      .cls-30 {
        fill: #8f4143;
        opacity: 0.29;
      }

      .cls-31 {
        fill: url(#linear-gradient-26);
      }

      .cls-32 {
        fill: url(#linear-gradient-27);
      }

      .cls-33 {
        fill: url(#linear-gradient-28);
      }

      .cls-34 {
        fill: #36364f;
      }

      .cls-35 {
        fill: url(#linear-gradient-29);
      }

      .cls-36 {
        fill: url(#linear-gradient-30);
      }

      .cls-37 {
        fill: url(#linear-gradient-31);
      }

      .cls-38 {
        fill: url(#linear-gradient-32);
      }

      .cls-39 {
        fill: url(#linear-gradient-33);
      }

      .cls-40 {
        fill: #fff;
      }

      .cls-41 {
        fill: url(#linear-gradient-34);
      }

      .cls-42 {
        fill: url(#linear-gradient-35);
      }

      .cls-43 {
        fill: url(#linear-gradient-36);
      }

      .cls-44 {
        fill: url(#linear-gradient-37);
      }

      .cls-45 {
        fill: url(#linear-gradient-38);
      }

      .cls-46 {
        fill: url(#linear-gradient-39);
      }

      .cls-47 {
        fill: url(#linear-gradient-40);
      }

      .cls-48 {
        fill: #5c8fe1;
      }
    </style>
    <linearGradient id="linear-gradient" x1="0.5" y1="0.007" x2="0.5" y2="0.995" gradientUnits="objectBoundingBox">
      <stop offset="0" stop-color="#ffecee"/>
      <stop offset="0.4" stop-color="#e09e7e"/>
      <stop offset="1" stop-color="#c04588"/>
    </linearGradient>
    <radialGradient id="radial-gradient" cx="111.65" cy="-20.934" r="197.761" gradientUnits="userSpaceOnUse">
      <stop offset="0" stop-color="#f9e8ae"/>
      <stop offset="1" stop-color="#edb971"/>
    </radialGradient>
    <linearGradient id="linear-gradient-2" x1="0.486" y1="-0.273" x2="0.504" y2="0.707" gradientUnits="objectBoundingBox">
      <stop offset="0" stop-color="#f7c4d7"/>
      <stop offset="1" stop-color="#8f4143"/>
    </linearGradient>
    <linearGradient id="linear-gradient-3" x1="0.493" y1="-0.458" x2="0.502" y2="0.548" gradientUnits="objectBoundingBox">
      <stop offset="0" stop-color="#f8d3e4"/>
      <stop offset="1" stop-color="#8f4143"/>
    </linearGradient>
    <linearGradient id="linear-gradient-4" x1="0.482" y1="-0.251" x2="0.507" y2="0.742" xlink:href="#linear-gradient-2"/>
    <linearGradient id="linear-gradient-5" x1="0.5" y1="0.431" x2="0.5" y2="1.395" gradientUnits="objectBoundingBox">
      <stop offset="0" stop-color="#d85e6d"/>
      <stop offset="1" stop-color="#593342"/>
    </linearGradient>
    <linearGradient id="linear-gradient-6" x1="0.5" y1="0.045" x2="0.5" y2="1.195" gradientUnits="objectBoundingBox">
      <stop offset="0" stop-color="#8f4143"/>
      <stop offset="1" stop-color="#593342"/>
    </linearGradient>
    <linearGradient id="linear-gradient-7" x1="0.5" y1="-0.389" x2="0.5" y2="0.957" xlink:href="#linear-gradient-6"/>
    <linearGradient id="linear-gradient-8" x1="0.5" y1="-0.389" x2="0.5" y2="0.958" xlink:href="#linear-gradient-6"/>
    <linearGradient id="linear-gradient-9" x1="0.5" y1="0.431" x2="0.5" y2="1.395" gradientUnits="objectBoundingBox">
      <stop offset="0" stop-color="#8f4143"/>
      <stop offset="1" stop-color="#36364f"/>
    </linearGradient>
    <linearGradient id="linear-gradient-10" x1="0.5" y1="0.045" x2="0.5" y2="1.195" gradientUnits="objectBoundingBox">
      <stop offset="0" stop-color="#edb971"/>
      <stop offset="0.36" stop-color="#ebb972"/>
      <stop offset="0.52" stop-color="#e4b778"/>
      <stop offset="0.64" stop-color="#d7b581"/>
      <stop offset="0.73" stop-color="#c6b28e"/>
      <stop offset="0.82" stop-color="#aead9e"/>
      <stop offset="0.89" stop-color="#92a8b3"/>
      <stop offset="0.96" stop-color="#71a2cb"/>
      <stop offset="1" stop-color="#589ddd"/>
    </linearGradient>
    <linearGradient id="linear-gradient-11" x1="0.5" y1="-0.39" x2="0.5" y2="0.957" gradientUnits="objectBoundingBox">
      <stop offset="0" stop-color="#edb971"/>
      <stop offset="0.38" stop-color="#ebb770"/>
      <stop offset="0.55" stop-color="#e6b06d"/>
      <stop offset="0.67" stop-color="#dca369"/>
      <stop offset="0.77" stop-color="#ce9262"/>
      <stop offset="0.86" stop-color="#bc7a59"/>
      <stop offset="0.94" stop-color="#a65f4e"/>
      <stop offset="1" stop-color="#8f4143"/>
    </linearGradient>
    <linearGradient id="linear-gradient-12" x1="0.5" y1="0.431" x2="0.5" y2="1.395" xlink:href="#linear-gradient-10"/>
    <linearGradient id="linear-gradient-13" x1="0.638" y1="0.191" x2="0.588" y2="0.406" gradientUnits="objectBoundingBox">
      <stop offset="0" stop-color="#bc6f78"/>
      <stop offset="1" stop-color="#593342"/>
    </linearGradient>
    <linearGradient id="linear-gradient-14" x1="0.46" y1="0.5" x2="0.902" y2="1.293" gradientUnits="objectBoundingBox">
      <stop offset="0" stop-color="#edb971"/>
      <stop offset="0.13" stop-color="#e5b777"/>
      <stop offset="0.32" stop-color="#ceb388"/>
      <stop offset="0.57" stop-color="#a8aca3"/>
      <stop offset="0.86" stop-color="#75a2c8"/>
      <stop offset="1" stop-color="#589ddd"/>
    </linearGradient>
    <linearGradient id="linear-gradient-15" x1="-3.729" y1="1.808" x2="-3.27" y2="2.558" gradientUnits="objectBoundingBox">
      <stop offset="0" stop-color="#572a2d"/>
      <stop offset="1" stop-color="#593342"/>
    </linearGradient>
    <linearGradient id="linear-gradient-16" x1="0.487" y1="0.29" x2="0.448" y2="0.468" gradientUnits="objectBoundingBox">
      <stop offset="0" stop-color="#b7767e"/>
      <stop offset="1" stop-color="#593342"/>
    </linearGradient>
    <linearGradient id="linear-gradient-17" x1="0.379" y1="-0.388" x2="0.564" y2="0.768" gradientUnits="objectBoundingBox">
      <stop offset="0" stop-color="#f9e8ae"/>
      <stop offset="1" stop-color="#ffecee"/>
    </linearGradient>
    <linearGradient id="linear-gradient-18" x1="0.603" y1="-0.034" x2="0.504" y2="0.933" gradientUnits="objectBoundingBox">
      <stop offset="0" stop-color="#cf7fb2"/>
      <stop offset="1" stop-color="#593342"/>
    </linearGradient>
    <linearGradient id="linear-gradient-19" x1="0.5" y1="0.008" x2="0.5" y2="0.995" gradientUnits="objectBoundingBox">
      <stop offset="0" stop-color="#f7c4d7"/>
      <stop offset="1" stop-color="#d688a7"/>
    </linearGradient>
    <clipPath id="clip-path">
      <rect id="Rectangle_3" data-name="Rectangle 3" class="cls-1" width="1437.5" height="935.073" rx="8.83"/>
    </clipPath>
    <linearGradient id="linear-gradient-20" x1="0.465" y1="0.5" x2="0.903" y2="1.292" xlink:href="#linear-gradient-14"/>
    <linearGradient id="linear-gradient-21" x1="0.56" y1="-0.944" x2="0.365" y2="0.742" xlink:href="#linear-gradient-11"/>
    <linearGradient id="linear-gradient-22" x1="2.083" y1="3.098" x2="2.54" y2="3.844" xlink:href="#linear-gradient-15"/>
    <linearGradient id="linear-gradient-24" x1="-0.023" y1="-2.128" x2="0.543" y2="0.749" gradientUnits="objectBoundingBox">
      <stop offset="0" stop-color="#f7c6d4"/>
      <stop offset="1" stop-color="#a76d7f"/>
    </linearGradient>
    <linearGradient id="linear-gradient-25" x1="-1.53" y1="0.607" x2="-0.025" y2="0.607" gradientUnits="objectBoundingBox">
      <stop offset="0" stop-color="#e16f7c"/>
      <stop offset="1" stop-color="#ecaf97"/>
    </linearGradient>
    <linearGradient id="linear-gradient-26" x1="3.815" y1="9.383" x2="5.313" y2="9.383" xlink:href="#linear-gradient-25"/>
    <linearGradient id="linear-gradient-27" x1="0.05" y1="0.49" x2="1.056" y2="0.49" gradientUnits="objectBoundingBox">
      <stop offset="0" stop-color="#f84723"/>
      <stop offset="1" stop-color="#d97c69"/>
    </linearGradient>
    <linearGradient id="linear-gradient-28" x1="-1.055" y1="0.916" x2="0.029" y2="0.916" gradientUnits="objectBoundingBox">
      <stop offset="0" stop-color="#f84723"/>
      <stop offset="1" stop-color="#f84723"/>
    </linearGradient>
    <linearGradient id="linear-gradient-29" x1="-59.562" y1="-0.814" x2="-58.288" y2="0.613" gradientUnits="objectBoundingBox">
      <stop offset="0" stop-color="#ecaf97"/>
      <stop offset="1" stop-color="#e16f7c"/>
    </linearGradient>
    <linearGradient id="linear-gradient-30" x1="-7.136" y1="8.623" x2="-6.709" y2="9.861" xlink:href="#linear-gradient-29"/>
    <linearGradient id="linear-gradient-31" x1="-5.857" y1="0.388" x2="-5.492" y2="0.942" xlink:href="#linear-gradient-29"/>
    <linearGradient id="linear-gradient-32" x1="-5.455" y1="-0.115" x2="-4.948" y2="0.711" xlink:href="#linear-gradient-6"/>
    <linearGradient id="linear-gradient-33" x1="0.772" y1="0.029" x2="0.307" y2="1.023" gradientUnits="objectBoundingBox">
      <stop offset="0" stop-color="#426bae"/>
      <stop offset="0.34" stop-color="#08275a"/>
      <stop offset="0.75" stop-color="#4374c3"/>
      <stop offset="0.92" stop-color="#164592"/>
      <stop offset="1" stop-color="#2e76eb"/>
    </linearGradient>
    <linearGradient id="linear-gradient-34" y1="0.5" x2="1" y2="0.5" gradientUnits="objectBoundingBox">
      <stop offset="0" stop-color="#2e76eb"/>
      <stop offset="0.33" stop-color="#2777fa"/>
      <stop offset="0.56" stop-color="#4680dd"/>
      <stop offset="0.716" stop-color="#5b97f8"/>
      <stop offset="0.92" stop-color="#5e87cb"/>
      <stop offset="1" stop-color="#2e76eb"/>
    </linearGradient>
    <linearGradient id="linear-gradient-35" x1="-8.69" y1="-0.049" x2="-8.693" y2="0.201" gradientUnits="objectBoundingBox">
      <stop offset="0" stop-color="#f9e8ae"/>
      <stop offset="1" stop-color="#734d52"/>
    </linearGradient>
    <linearGradient id="linear-gradient-36" x1="-3.413" y1="-0.053" x2="-3.418" y2="0.199" xlink:href="#linear-gradient-35"/>
    <linearGradient id="linear-gradient-37" x1="-5.325" y1="-0.65" x2="-3.897" y2="1.175" xlink:href="#linear-gradient-35"/>
    <linearGradient id="linear-gradient-38" x1="-4.672" y1="-0.508" x2="-4.599" y2="0.398" xlink:href="#linear-gradient-35"/>
    <linearGradient id="linear-gradient-39" x1="-5.817" y1="-0.483" x2="-5.734" y2="0.401" xlink:href="#linear-gradient-35"/>
    <linearGradient id="linear-gradient-40" x1="-0.004" y1="0.501" x2="1" y2="0.501" xlink:href="#linear-gradient-25"/>
  </defs>
  <g id="Group_2" data-name="Group 2" transform="translate(142 73)">
    <g id="Asset_5" data-name="Asset 5" transform="translate(432.67 28.927)">
      <g id="OBJECTS" transform="translate(-111.67)">
        <path id="Path_28" data-name="Path 28" class="cls-2" d="M1066.285,935.073a30.808,30.808,0,0,0,30.809-30.808V30.809A30.808,30.808,0,0,0,1066.285,0H549.308a509.407,509.407,0,0,0-129.1,216.323c-73.271,240.746,69.782,348.908-38.38,453.58-95.461,92.356-209.9,130.422-245.073,265.17Z" transform="translate(340.406)"/>
        <circle id="Ellipse_1" data-name="Ellipse 1" class="cls-3" cx="125.607" cy="125.607" r="125.607" transform="translate(1046.723 290.187)"/>
        <path id="Path_29" data-name="Path 29" class="cls-4" d="M383.413,86.421C355.5,90.608,273.193,130.8,211.82,162.274c3.908,105.126,40.3,176.826,18.248,240.188L336.9,435.329l514.046-74.422S429.922,79.443,383.413,86.421Z" transform="translate(527.236 214.791)"/>
        <path id="Path_30" data-name="Path 30" class="cls-5" d="M367.119,358.478C355.5,307.328,478.769,230.568,471.791,207.3s-104.672-30.25-123.269-62.8S383.413,86.33,383.413,86.33c-27.913,4.187-110.22,44.381-171.593,75.853,3.908,105.126,40.3,176.826,18.248,240.188L336.9,435.238l61.233-8.862C386.239,408.372,372.946,384.018,367.119,358.478Z" transform="translate(527.236 214.882)"/>
        <path id="Path_31" data-name="Path 31" class="cls-6" d="M678.082,370.415V138.531c-46.091-24.424-83.738-40.508-98.846-37.228C525.714,112.921,305.1,320.486,305.1,320.486l343.918,55.3Z" transform="translate(759.418 251.095)"/>
        <path id="Path_32" data-name="Path 32" class="cls-7" d="M629.514,372.662A249.429,249.429,0,0,0,678.082,334.7V215.862c-36.81-34.681-97.938-54.883-112.8-65.7-21.842-15.875,10.467-41.869,20.481-49.2a22.676,22.676,0,0,0-6.524.349C525.714,112.935,305.1,320.5,305.1,320.5Z" transform="translate(759.418 251.081)"/>
        <path id="Path_33" data-name="Path 33" class="cls-8" d="M881.216,330.741V272.857l-11.409-18.039-.8-1.256h12.212V234.721l-23.761-37.542-10.886-17.2h19.12l-21.981-34.891L821.9,110.58,799.92,145.261l-21.946,34.891h19.12l-10.886,17.2-35.833,56.209H774.52l-.837,1.256-20.2,31.96-17.934-28.192-6.978-11.025H740.85l-13.956-22.225L712.938,203.11l-13.956,22.225-13.956,22.225h12.247l-6.978,11.025-5.966,9.455-14.375-22.679-6.978-11.026h12.247l-13.956-22.225-13.956-22.225-13.956,22.225L619.4,234.338h12.247l-6.978,11.026-15.875,25.121L606,266.123l-4.85-7.711H609.7l-9.8-15.492L589.11,227.185l-9.839,15.526-9.8,15.492h8.548l-4.885,7.711-10.014,15.84-4.187-6.629-4.85-7.676h8.548l-9.839-15.526-9.8-15.526-9.839,15.526-9.839,15.526h8.583L527,275.125l-12.491,19.748-13.956-22.3-.558-.872h16.852l-24.912-39.357-7.606-12.037h13.084L482.065,196.1l-15.317-24.214L451.4,196.1l-15.317,24.214h13.328L441.8,232.349l-8.688,13.712-4.4-6.978-4.571-7.571H432.7l-9.839-15.526-9.8-15.492-9.839,15.491-9.8,15.526h8.548l-4.885,7.711L386.883,255.1l-4.187-6.629-4.885-7.676h8.583l-9.839-15.526-9.839-15.526-9.8,15.526-9.839,15.526h8.548l-4.85,7.676-12.491,19.748-13.956-22.3-.558-.907h16.643L315.5,205.657l-7.606-12h13.328L305.9,169.441l-15.317-24.214-15.352,24.214-15.317,24.214h13.328l-7.606,12-24.912,39.357h16.852l-.558.907-33.53,53h106.1l-5.862,9.281h85.936l-5.827-9.211h12.805l-16.922,26.691h106.1l-5.862,9.281H585.9l-5.827-9.211h8.06l-3.21,5.094H659.38l-8.374,13.224H774.171l-8.443-13.328ZM345.259,274.218l-1.6,2.512-1.919-3.07h3.873Zm176.233,26.8-1.6,2.512-1.919-3.07h3.873ZM615.7,282.208l-.244.384-.768-1.221h1.535ZM745.63,298.99l-2.268-3.489-.523-.837h5.792Z" transform="translate(556.284 275.242)"/>
        <path id="Path_34" data-name="Path 34" class="cls-9" d="M246.945,227.695l-.558-.907h16.852l-24.912-39.357-7.606-12h13.363l-15.317-24.214L213.415,127,198.1,151.214l-15.352,24.214h13.363l-7.606,12-24.912,39.357h16.852l-.558.907L146.32,280.659H280.51Z" transform="translate(753.827 316.113)"/>
        <path id="Path_35" data-name="Path 35" class="cls-10" d="M233.858,205.673l-.349-.558H244.29l-15.945-25.226-4.885-7.711h8.583L222.2,156.686l-9.839-15.526-9.8,15.526-9.839,15.492h8.548l-4.85,7.711-15.98,25.226h10.816l-.384.558L169.38,239.622h85.971Z" transform="translate(811.225 351.358)"/>
        <path id="Path_36" data-name="Path 36" class="cls-11" d="M233.04,190.555l-.174-.279h5.862l-8.688-13.712-2.652-4.187h4.64l-5.3-8.444-5.373-8.444-5.338,8.444-5.338,8.444h4.64l-2.617,4.187-8.688,13.712h5.862l-.174.279L198.01,209.012h46.719Z" transform="translate(882.487 387.027)"/>
        <path id="Path_37" data-name="Path 37" class="cls-12" d="M247.418,208.363l-.349-.593H257.85l-15.945-25.191-4.885-7.711h8.548l-9.8-15.526-9.839-15.491-9.8,15.491-9.839,15.526h8.548l-4.85,7.711L194,207.77h10.816l-.384.593L182.94,242.312h85.971Z" transform="translate(844.977 358.054)"/>
        <path id="Path_38" data-name="Path 38" class="cls-13" d="M319.779,207.514l-.384-.628h11.793l-17.445-27.564-5.338-8.409h9.351l-10.711-16.957L296.3,137l-10.746,16.957-10.746,16.957h9.351l-5.3,8.409-17.48,27.564H273.2l-.384.628L249.3,244.6h93.961Z" transform="translate(1010.152 341.004)"/>
        <path id="Path_39" data-name="Path 39" class="cls-14" d="M314.569,189.634l-.244-.419H321.9L310.7,171.56l-3.419-5.373h6L306.4,155.3l-6.873-10.851L292.657,155.3l-6.908,10.886h6l-3.419,5.373-11.165,17.655h7.571l-.279.419L269.42,213.394h60.187Z" transform="translate(1060.233 359.547)"/>
        <path id="Path_40" data-name="Path 40" class="cls-15" d="M326.329,189.284l-.244-.419h7.571l-11.2-17.655-3.384-5.373h5.966l-6.874-10.886L311.291,144.1l-6.874,10.851-6.908,10.886h6l-3.419,5.373-11.165,17.655H296.5l-.244.419L281.18,213.044H341.4Z" transform="translate(1089.504 358.676)"/>
        <path id="Path_41" data-name="Path 41" class="cls-16" d="M641.817,157.92C442.59,167.306,319.67,247.764,319.67,247.764l30.215,51.15L641.817,289Z" transform="translate(795.683 393.075)"/>
        <path id="Path_42" data-name="Path 42" class="cls-17" d="M420.5,195.145c-7.571-3.873-7.781,13.014-12.072,12.456a7.573,7.573,0,0,1-3.489-1.256h0v-.209l1.256-2.966s14.724-17.445,7.187-21.458S405.6,194.761,401.307,194.2a7.432,7.432,0,0,1-3.489-1.256v-.174l.733-1.71s9.106-10.816,4.431-13.224-4.78,8.06-7.432,7.711h-.558c-1.151-5.757-6.211-16.852-9.072-13.642s3.733,10.467,7.153,14.235a6.988,6.988,0,0,1-.384,1.082c-1.151,2.407-9.979-3.07-10.467,2.163s13.468,3.489,13.468,3.489l1.849.314h0a8.166,8.166,0,0,1-.872,3.7c-1.849,3.908-16.189-4.954-16.992,3.489s21.911,5.478,21.911,5.478l3.14.488v.244h0a8.168,8.168,0,0,1-.872,3.7c-1.849,3.943-16.154-4.954-16.992,3.489s21.911,5.443,21.911,5.443l3.175.523a7.956,7.956,0,0,1-.872,3.664c-1.849,3.943-16.189-4.954-16.992,3.489S416,232.339,416,232.339l3.175.523v.035h.07v-.244l1.256-2.931s14.724-17.445,7.188-21.458-7.781,13.014-12.072,12.491a7.954,7.954,0,0,1-3.489-1.256l1.291-2.966S428.068,198.983,420.5,195.145Z" transform="translate(944.988 426.469)"/>
        <path id="Path_43" data-name="Path 43" class="cls-18" d="M420.262,205.209c-1.57-6.42-11.619,2.093-13.5-.733a5.583,5.583,0,0,1-1.082-2.756h0l2.408-.768s17.864-.314,16.259-6.734-11.619,2.059-13.5-.733a5.584,5.584,0,0,1-1.082-2.756h0l1.4-.454s11.025-.174,10.049-4.152-7.188,1.291-8.339-.454l-.244-.384c2.791-3.489,6.769-12.247,3.489-12.316s-4.257,7.571-4.71,11.514l-.872.314c-1.989.558-3.28-7.432-6.629-5.059s4.92,9.665,4.92,9.665l.768,1.221h0a5.933,5.933,0,0,1-2.617,1.4c-3.28.907-5.338-12.072-10.746-8.2s7.955,15.666,7.955,15.666l1.326,2.128v.209h0a5.964,5.964,0,0,1-2.617,1.361c-3.28.942-5.338-12.037-10.746-8.2s7.955,15.666,7.955,15.666l1.326,2.128a5.933,5.933,0,0,1-2.617,1.4c-3.245.907-5.338-12.072-10.746-8.2s7.99,15.666,7.99,15.666l1.326,2.128v.174h0v-.174l2.372-.768s17.864-.314,16.294-6.734-11.653,2.059-13.538-.733a6.384,6.384,0,0,1-1.082-2.756l2.407-.768S421.866,211.629,420.262,205.209Z" transform="translate(962.704 430.535)"/>
        <path id="Path_44" data-name="Path 44" class="cls-19" d="M251.053,163.67s165.138,2.3,237.257,13.956,251.214,74.422,251.214,74.422L302.238,359.058S248.715,165.973,251.053,163.67Z" transform="translate(624.706 407.387)"/>
        <path id="Path_45" data-name="Path 45" class="cls-20" d="M831.632,290.917V186c-72.224,1.082-177.454,13.956-226.79,4.5-62.8-12.212-267.508,8.164-267.508,8.164S232.663,294.44,244.316,304.629s162.8,38.694,181.432,40.752,314.017-8.164,344.232-12.247C780.9,331.669,806.372,313.735,831.632,290.917Z" transform="translate(605.868 462.968)"/>
        <path id="Path_46" data-name="Path 46" class="cls-21" d="M143.41,599.332l548.692-28.3s-17.445-125.607-52.336-163.987-66.292-62.8-76.76-80.249-41.869-27.913-76.76-45.358-27.913-87.227-94.205-160.5c-3.175-3.489-6.315-6.7-9.42-9.735,7.606,128.468,60.989,206.1-17.445,281.883C285.415,470.376,192.327,509.663,143.41,599.332Z" transform="translate(356.959 276.81)"/>
        <path id="Path_47" data-name="Path 47" class="cls-22" d="M1097.094,449.535V182.69c-159.346,26.029-336.871,104.079-544.3,60.4a604.765,604.765,0,0,0-190.887-9.63c-90.716,79.76-192.388,121.385-225.15,246.887h929.525A30.808,30.808,0,0,0,1097.094,449.535Z" transform="translate(340.406 454.73)"/>
        <g id="Group_1" data-name="Group 1" class="cls-23">
          <path id="Path_48" data-name="Path 48" class="cls-24" d="M531.543,303.215c-33.391-17.027-34.3,57.5-53.278,55.058a33.146,33.146,0,0,1-15.806-5.548h0l-.558-1.012,5.617-13.049s65-77.6,31.611-94.624-34.3,57.5-53.278,55.058a33.147,33.147,0,0,1-15.806-5.548l-.419-.733,3.245-7.536s40.159-47.94,19.225-58.407-21.144,35.449-32.832,33.949a13.59,13.59,0,0,1-2.477-.419c-5.024-25.366-27.354-74.387-40.02-60.291-11.374,12.63,16.468,46.265,31.646,62.8a28.332,28.332,0,0,1-1.745,4.815c-5.024,10.712-44.032-13.5-46.23,9.56s59.593,14.829,59.593,14.829l8.06,1.291.419.768a33.947,33.947,0,0,1-3.8,16.329c-8.165,17.445-71.387-21.911-74.98,15.492s96.647,24.075,96.647,24.075l13.956,2.233.558,1.012v.209a33.564,33.564,0,0,1-3.8,16.329c-8.165,17.445-71.387-21.911-74.98,15.492s96.648,24.075,96.648,24.075l13.956,2.233a33.776,33.776,0,0,1-3.8,16.294c-8.164,17.445-71.386-21.876-74.98,15.492s96.648,24.075,96.648,24.075l13.956,2.268.558,1.012.384-.872h.907l-.558-1.012,5.617-13.014s65-77.6,31.611-94.624-34.3,57.465-53.278,55.058A33.565,33.565,0,0,1,494,410.783l5.583-13.014S564.934,320.241,531.543,303.215Z" transform="translate(870.264 491.876)"/>
          <path id="Path_49" data-name="Path 49" class="cls-25" d="M529.632,348.47c-6.978-28.366-51.394,9.176-59.663-3.245a26.589,26.589,0,0,1-4.815-12.142v-.174l.314-.837,10.467-3.489s78.923-1.361,71.875-29.727-51.359,9.176-59.628-3.245a25.82,25.82,0,0,1-4.815-12.142l.209-.628,6.106-1.919s48.638-.872,44.311-18.353-31.681,5.652-36.775-1.989c-.384-.593-.7-1.151-1.012-1.675,12.351-15.91,29.832-54.116,15.038-54.395-13.258-.209-18.841,33.356-20.934,50.766a23.348,23.348,0,0,1-3.733,1.431c-8.862,2.512-14.549-32.832-29.238-22.365s21.7,42.671,21.7,42.671l3.489,5.443-.209.628a26.343,26.343,0,0,1-11.584,6.071c-14.375,4.082-23.551-53.208-47.417-36.217s35.2,69.223,35.2,69.223l5.827,9.386-.314.837v.174a26.341,26.341,0,0,1-11.584,6.071c-14.375,4.082-23.586-53.208-47.416-36.217s35.2,69.223,35.2,69.223l5.827,9.386a26.379,26.379,0,0,1-11.549,6.071c-14.375,4.082-23.586-53.208-47.417-36.217s35.2,69.188,35.2,69.188l5.827,9.386-.314.837.7-.209.384.628.279-.837,10.467-3.489s78.888-1.4,71.84-29.762-51.359,9.176-59.628-3.245a26.344,26.344,0,0,1-4.815-12.107l10.467-3.489S536.68,376.836,529.632,348.47Z" transform="translate(949.423 509.041)"/>
          <path id="Path_50" data-name="Path 50" class="cls-26" d="M291.632,348.47c-6.978-28.366-51.394,9.176-59.663-3.245a26.586,26.586,0,0,1-4.815-12.142v-.174l.314-.837,10.467-3.489s78.923-1.361,71.875-29.727-51.359,9.176-59.628-3.245a25.819,25.819,0,0,1-4.815-12.142l.209-.628,6.106-1.919s48.638-.872,44.311-18.353-31.681,5.652-36.775-1.989c-.384-.593-.7-1.151-1.012-1.675,12.351-15.91,29.832-54.116,15.038-54.395-13.258-.209-18.841,33.356-20.934,50.766a24.709,24.709,0,0,1-3.733,1.43c-8.862,2.512-14.549-32.832-29.238-22.365s21.7,42.671,21.7,42.671l3.489,5.443-.209.628a26.342,26.342,0,0,1-11.584,6.071c-14.375,4.082-23.551-53.208-47.417-36.217s35.2,69.223,35.2,69.223l5.827,9.386-.314.837v.174a26.552,26.552,0,0,1-11.584,6.071c-14.375,4.082-23.586-53.208-47.417-36.217s35.2,69.223,35.2,69.223l5.827,9.386a26.379,26.379,0,0,1-11.549,6.071c-14.375,4.082-23.586-53.208-47.417-36.217s35.2,69.188,35.2,69.188l5.827,9.386-.314.837.7-.209.384.628.279-.837,10.467-3.489s78.888-1.4,71.84-29.762-51.359,9.176-59.628-3.245a26.343,26.343,0,0,1-4.815-12.107l10.467-3.489S298.68,376.836,291.632,348.47Z" transform="translate(357.023 509.041)"/>
          <path id="Path_51" data-name="Path 51" class="cls-24" d="M293.543,303.215c-33.39-17.027-34.3,57.5-53.278,55.058a33.146,33.146,0,0,1-15.806-5.548h0l-.558-1.012,5.617-13.049s65-77.6,31.611-94.624-34.3,57.5-53.278,55.058a33.146,33.146,0,0,1-15.805-5.548l-.419-.733,3.245-7.536s40.159-47.94,19.225-58.407-21.144,35.449-32.832,33.949a13.593,13.593,0,0,1-2.477-.419c-5.024-25.366-27.354-74.387-40.02-60.291-11.374,12.63,16.468,46.265,31.646,62.8a28.325,28.325,0,0,1-1.745,4.815c-5.024,10.712-44.032-13.5-46.23,9.56s59.593,14.829,59.593,14.829l8.06,1.291.419.768a33.949,33.949,0,0,1-3.8,16.329c-8.164,17.445-71.387-21.911-74.98,15.492s96.647,24.075,96.647,24.075l13.956,2.233.558,1.012v.209a33.565,33.565,0,0,1-3.8,16.329c-8.164,17.445-71.387-21.911-74.98,15.492s96.647,24.075,96.647,24.075l13.956,2.233a33.776,33.776,0,0,1-3.8,16.294c-8.164,17.445-71.387-21.876-74.98,15.492s96.647,24.075,96.647,24.075l13.956,2.268.558,1.012.384-.872h.907l-.558-1.012,5.617-13.014s65-77.6,31.611-94.624-34.3,57.465-53.278,55.058A33.565,33.565,0,0,1,256,410.783l5.583-13.014S326.934,320.241,293.543,303.215Z" transform="translate(277.863 491.876)"/>
        </g>
        <ellipse id="Ellipse_2" data-name="Ellipse 2" class="cls-27" cx="84.5" cy="20.5" rx="84.5" ry="20.5" transform="translate(912.352 824.967) rotate(-9)"/>
      </g>
    </g>
    <g id="Asset_1" data-name="Asset 1" transform="translate(1240.706 567.885)">
      <g id="Layer_2" data-name="Layer 2" transform="translate(-0.006 0.045)">
        <g id="OBJECTS-2" data-name="OBJECTS">
          <path id="Path_1" data-name="Path 1" class="cls-28" d="M46.761,69S66.637,79.921,69.5,89.231s4.641,52.938,6.006,58.644-2.949,6.662-7.371,4.86-9.392-27.711-9.61-38.222a31.015,31.015,0,0,0-8.191-19.876C48.7,93.244,30,81.258,28.852,78.61S46.761,69,46.761,69Z" transform="translate(49.847 119.26)"/>
          <path id="Path_2" data-name="Path 2" class="cls-29" d="M42.233,105.306s-.164-1.884,1.474-2.157,3.085,2.157,4.477,2.13,3.3-2.184,3.686-3.85-.41-4.286.246-4.778,2.211,1.338,2.921,3c.792,1.065,5.706.928,7.508.273s4.723-1.884,6.389-.3-3.058,6.307-5.488,7.481-7.535,1.993-9.911,3.768A10.921,10.921,0,0,1,44.99,112C42.642,111.394,42.206,106.507,42.233,105.306Z" transform="translate(73.078 166.961)"/>
          <path id="Path_3" data-name="Path 3" class="cls-30" d="M65.459,144.188A27.3,27.3,0,0,1,60,133.978c-1.474-7.208-.628-34.837-2.867-43.847S38.4,74.46,38.4,74.46L32.67,77.873c5.024,3.495,10.074,6.825,10.921,7.508a31.015,31.015,0,0,1,8.19,19.876c.218,10.4,5.187,36.339,9.61,38.222A9.856,9.856,0,0,0,65.459,144.188Z" transform="translate(56.54 128.706)"/>
          <path id="Path_4" data-name="Path 4" class="cls-31" d="M48.337,80.813s6.5,21.841,2.075,30.359-33.718,41.144-36.8,46.085-6.771,2.73-8.682-1.665S17.7,129.274,24.8,121.766a31.151,31.151,0,0,0,8.191-19.9c-.273-2.211-5.3-23.78-4.232-26.51S48.337,80.813,48.337,80.813Z" transform="translate(8.247 129.288)"/>
          <path id="Path_5" data-name="Path 5" class="cls-29" d="M6.054,104.343s1.229-1.474,2.566-.519.683,3.713,1.72,4.669a5.46,5.46,0,0,0,5.46-.191c1.283-1.31,2.73-3.331,3.522-3.222s.628,2.512,0,4.177c-.191,1.31,3.44,4.669,5.187,5.46s4.7,1.966,4.778,4.232-6.662,2.457-9.255,1.42-6.771-3.822-9.747-4.232a11.112,11.112,0,0,1-7.153-5.187C2.1,109.011,5.208,105.162,6.054,104.343Z" transform="translate(5.073 178.954)"/>
          <path id="Path_6" data-name="Path 6" class="cls-30" d="M37.407,111.611a33.172,33.172,0,0,0,4.2-20.995l1.2-12.2A79.636,79.636,0,0,0,32.384,74.89l-3.74,1.474c0,5.269,4.068,23.316,4.259,25.281a31.151,31.151,0,0,1-8.19,19.9c-7.1,7.563-21.7,29.6-19.794,33.963a8.982,8.982,0,0,0,2.976,3.9c2.266-4.7,2.921-10.921,7.153-17.391C21.381,132.36,31.237,122.641,37.407,111.611Z" transform="translate(8.229 129.45)"/>
          <path id="Path_7" data-name="Path 7" class="cls-32" d="M10.284,62.158A61.047,61.047,0,0,0,12.14,91.48c5.023,14.934,1.884,31.37,4.669,34.045s21.213,4.559,29.9-3.222c1.938-6.17,1.583-28.012,2.1-36.885s1.665-23.916.273-25.964S10.284,62.158,10.284,62.158Z" transform="translate(16.105 101.858)"/>
          <path id="Path_8" data-name="Path 8" class="cls-33" d="M60.576,70.3a5.733,5.733,0,0,1,4.887,2.457c1.857,2.73,4.887,4.914,11.549,11.521S87,94.708,89.025,97s.246,5.46-1.119,8.873S76.111,119.28,67.238,118.133,43.813,103.281,37.07,98.093s-20.995-12.422-22.5-18.429-3.167-14.033,6.416-21.841S60.576,70.3,60.576,70.3Z" transform="translate(23.228 96.828)"/>
          <path id="Path_9" data-name="Path 9" class="cls-34" d="M29.32,14.82c0,2.457,1.392,4.45,3.112,4.45s3.14-1.993,3.14-4.45-1.392-4.45-3.14-4.45S29.32,12.281,29.32,14.82Z" transform="translate(50.744 17.82)"/>
          <path id="Path_10" data-name="Path 10" class="cls-35" d="M30.573,13.56s4.86,5.46,5,7.29-5.269,2.1-5.269,2.1Z" transform="translate(52.439 23.339)"/>
          <path id="Path_11" data-name="Path 11" class="cls-36" d="M39.054,31.54l-1.01,8.518a31.178,31.178,0,0,1-20.5-7.508l2.73-15.48Z" transform="translate(30.363 29.412)"/>
          <path id="Path_12" data-name="Path 12" class="cls-37" d="M56.218,22.449s3.6,27.3.71,31.124-22.606,4.969-29.076-2.13-18.319-22.5-9.337-39.615C25.286-1.085,52.751-1.713,56.218,22.449Z" transform="translate(26.439 5.032)"/>
          <path id="Path_13" data-name="Path 13" class="cls-38" d="M16.81,18.694s.437-8.982,6.416-13.651,27.793-2.1,34.7,5.46-7.863,17.582-10.32,18.265,3.44,9.719,2.184,10.921-3.44,0-4.4-2.184-2.184-5.024-5.46-3.14,0,10.047,2.73,10.921,1.256,3.467-.3,5.979-13.405,1.092-18.1-3.3S8.183,22.626,16.81,18.694Z" transform="translate(23.666 4.554)"/>
          <path id="Path_14" data-name="Path 14" class="cls-39" d="M62.408,33.968S43.734,18.078,26.752,23.375c-13.1,5-20.34,30.5-17.855,76.909,1.693,21.841-2.348,26.756,2.239,29.267s30.8,6.252,46.413.819c10.921-4.587,12.941-8.354,12.531-10.921s-5.024-2.075-4.614-9.61,2.949-20.886.846-35.11,4.477-27.957,3.768-32.98S62.408,33.968,62.408,33.968Z" transform="translate(14.57 38.451)"/>
          <path id="Path_15" data-name="Path 15" class="cls-30" d="M13.71,11.15h.519l21.459,3.085S27.5,18.958,30.664,25.92c2.4,5.46,9.528,6.825,12.559,9.665l-.71,1.174c-1.583,2.512-13.405,1.092-18.1-3.3C21.081,30.343,14.5,18.931,13.71,11.15Z" transform="translate(23.736 19.169)"/>
          <path id="Path_16" data-name="Path 16" class="cls-40" d="M71.473,17.56S49.632,33.449,27.981,38.445c-7.508.846-10.02-1.665-10.02-1.665s-9.61-15.016-4.177-22.988S32.9-.842,44.308.141c10.429,1.529,19.357,17.61,19.357,17.61S74.394,10.843,71.473,17.56Z" transform="translate(20.986 -0.045)"/>
          <path id="Path_17" data-name="Path 17" class="cls-30" d="M13.791,11.914c.355-.519.764-1.037,1.174-1.556l.437-.464.956-.928.519-.491,1.092-.983.546-.437,1.229-.983.546-.382c.437-.328.9-.655,1.392-.956l.491-.328,1.611-.956.41-.246,1.884-.956.246-.137c.737-.355,1.474-.683,2.239-.983h0c-4.2,3.385-8.191,7.836-8.191,12.177.41,8.764,9.61,18.811,21.841,13.378A242.989,242.989,0,0,0,63.671,15.245c.519.874,0,.628,0,.628s10.648-6.88,7.726-.191c0,0-21.841,15.89-43.492,20.886-7.508.846-10.02-1.665-10.02-1.665S8.358,19.886,13.791,11.914Z" transform="translate(20.979 1.833)"/>
          <path id="Path_18" data-name="Path 18" class="cls-34" d="M42.848,11.41,24.72,19.764,25.7,21.02l16.845-7.945Z" transform="translate(42.785 19.619)"/>
          <path id="Path_19" data-name="Path 19" class="cls-41" d="M8.9,99.215C6.576,56.106,12.747,31.07,24.05,23.7a37.84,37.84,0,0,1,24.572,3.194S58.641,29,60.333,41.936s-3.768,31.779-7.126,38.878-7.1,18.4-2.484,26.346c3.986,6.907,12.723,15.4,10.238,20.531-1.065.519-2.239,1.065-3.549,1.611-15.48,5.46-41.662,1.693-46.276-.819S10.59,120.947,8.9,99.215Z" transform="translate(14.57 39.519)"/>
          <path id="Path_20" data-name="Path 20" class="cls-42" d="M46.461,29.978S25.766,26.484,23.473,51.137L17.63,47.178S20.961,25.637,39.471,24.6a8.191,8.191,0,0,1,6.989,5.378Z" transform="translate(30.518 42.44)"/>
          <path id="Path_21" data-name="Path 21" class="cls-43" d="M15.636,27.424s4.177-5.46,13.787-3.768,18.4,3.358,22.142,9.61-3.74,72.322-5.46,83.188c-2.921,5.024-12.531,7.945-17.965,5.87S6.135,120.5,3.569,114.653-1.919,46.235,15.636,27.424Z" transform="translate(2.835 40.244)"/>
          <path id="Path_22" data-name="Path 22" class="cls-44" d="M18.99,25.858c7.535-.273,17.828,3.9,20.067,9.474,2.048,5.133.792,68.008-6.607,83.3a42.562,42.562,0,0,1-4.259-.655c-4.723-.437-22.005-1.829-24.572-7.672-2.293-5.351-5.133-58.48,7.808-81.3A12.941,12.941,0,0,1,18.99,25.858Z" transform="translate(2.867 44.595)"/>
          <path id="Path_23" data-name="Path 23" class="cls-45" d="M31.833,79.407s5-24.572.41-28.831S7.152,42.632,2.975,45.553s-3.331,26.319-1.256,27.6S22.633,84.84,31.833,79.407Z" transform="translate(0.016 76.882)"/>
          <path id="Path_24" data-name="Path 24" class="cls-46" d="M25.564,52.8c1.338,2.73,1.857,17.91.137,25.8-9.637.218-22.278-6.8-23.971-7.808S-1,52.832,1.429,45.87C5.77,46.58,24.09,49.856,25.564,52.8Z" transform="translate(0.006 79.241)"/>
          <path id="Path_25" data-name="Path 25" class="cls-47" d="M24.394,45.014a65.524,65.524,0,0,0-1.8,21.841c1.365,9.091,4.1,13.651,8.191,12.286A33.608,33.608,0,0,0,46.7,68.221c4.1-5.924,4.1-12.286,5-15.48a26.483,26.483,0,0,0,2.293-8.709,6.525,6.525,0,0,0-5.024-6.361,6.8,6.8,0,0,0-5.46,5.924,37.021,37.021,0,0,1-.956,9.392,44.5,44.5,0,0,1-4.942,10.156l.9-12.723Z" transform="translate(38.688 65.054)"/>
          <path id="Path_26" data-name="Path 26" class="cls-30" d="M31.766,43.13,24.394,40.4a65.524,65.524,0,0,0-1.8,21.841c1.365,9.091,4.1,13.651,8.19,12.286l.464-.191C25.65,61.286,29.827,47.99,31.766,43.13Z" transform="translate(38.688 69.777)"/>
          <path id="Path_27" data-name="Path 27" class="cls-48" d="M32.4,30.447a10.129,10.129,0,0,1,17.528,3.686,23.725,23.725,0,0,1,.355,11.958c-2.73,12.422-3.85,21.841-5.46,25.773-2.566,3-18.292-1.529-23.807-6.907.491-7.918,3.331-23.916,8.19-30.5C30.357,33.04,31.395,31.675,32.4,30.447Z" transform="translate(36.384 46.231)"/>
        </g>
      </g>
    </g>
  </g>
</svg>
